<mxfile host="Electron" modified="2024-06-14T09:04:07.022Z" agent="Mozilla/5.0 (Macintosh; Intel Mac OS X 10_15_7) AppleWebKit/537.36 (KHTML, like Gecko) draw.io/24.4.13 Chrome/124.0.6367.207 Electron/30.0.6 Safari/537.36" etag="VOAxLv_t8NihTn-Qvcvr" version="24.4.13" type="device" pages="5">
  <diagram name="Moscow" id="nidwGbP7jdounBGlAkv4">
    <mxGraphModel dx="896" dy="494" grid="1" gridSize="10" guides="1" tooltips="1" connect="1" arrows="1" fold="1" page="1" pageScale="1" pageWidth="827" pageHeight="1169" math="0" shadow="0">
      <root>
        <mxCell id="0" />
        <mxCell id="1" parent="0" />
        <mxCell id="EwGtlSyqyE_qJy5FZoIZ-2" value="" style="rounded=1;whiteSpace=wrap;html=1;sketch=1;hachureGap=4;jiggle=2;curveFitting=1;fontFamily=Kalam;fontSize=16;fillColor=#f8cecc;strokeColor=#b85450;" vertex="1" parent="1">
          <mxGeometry x="120" y="240" width="120" height="180" as="geometry" />
        </mxCell>
        <mxCell id="EwGtlSyqyE_qJy5FZoIZ-3" value="Must-have" style="text;html=1;align=center;verticalAlign=middle;resizable=0;points=[];autosize=1;strokeColor=none;fillColor=none;fontFamily=Kalam;fontSize=16;" vertex="1" parent="1">
          <mxGeometry x="130" y="190" width="90" height="30" as="geometry" />
        </mxCell>
        <mxCell id="EwGtlSyqyE_qJy5FZoIZ-4" value="" style="rounded=1;whiteSpace=wrap;html=1;sketch=1;hachureGap=4;jiggle=2;curveFitting=1;fontFamily=Kalam;fontSize=16;fillColor=#ffe6cc;strokeColor=#d79b00;" vertex="1" parent="1">
          <mxGeometry x="285" y="240" width="120" height="180" as="geometry" />
        </mxCell>
        <mxCell id="EwGtlSyqyE_qJy5FZoIZ-5" value="" style="rounded=1;whiteSpace=wrap;html=1;sketch=1;hachureGap=4;jiggle=2;curveFitting=1;fontFamily=Kalam;fontSize=16;fillColor=#fff2cc;strokeColor=#d6b656;" vertex="1" parent="1">
          <mxGeometry x="450" y="240" width="120" height="180" as="geometry" />
        </mxCell>
        <mxCell id="EwGtlSyqyE_qJy5FZoIZ-6" value="Should-have" style="text;html=1;align=center;verticalAlign=middle;resizable=0;points=[];autosize=1;strokeColor=none;fillColor=none;fontFamily=Kalam;fontSize=16;" vertex="1" parent="1">
          <mxGeometry x="295" y="190" width="100" height="30" as="geometry" />
        </mxCell>
        <mxCell id="EwGtlSyqyE_qJy5FZoIZ-7" value="Could-have" style="text;html=1;align=center;verticalAlign=middle;resizable=0;points=[];autosize=1;strokeColor=none;fillColor=none;fontFamily=Kalam;fontSize=16;" vertex="1" parent="1">
          <mxGeometry x="455" y="190" width="100" height="30" as="geometry" />
        </mxCell>
        <mxCell id="EwGtlSyqyE_qJy5FZoIZ-8" value="" style="endArrow=classic;html=1;rounded=0;sketch=1;hachureGap=4;jiggle=2;curveFitting=1;fontFamily=Kalam;fontSize=16;strokeWidth=2;" edge="1" parent="1">
          <mxGeometry width="50" height="50" relative="1" as="geometry">
            <mxPoint x="120" y="460" as="sourcePoint" />
            <mxPoint x="570" y="460" as="targetPoint" />
          </mxGeometry>
        </mxCell>
        <mxCell id="EwGtlSyqyE_qJy5FZoIZ-9" value="Priority" style="text;html=1;align=center;verticalAlign=middle;resizable=0;points=[];autosize=1;strokeColor=none;fillColor=none;fontFamily=Kalam;fontSize=16;" vertex="1" parent="1">
          <mxGeometry x="295" y="468" width="70" height="30" as="geometry" />
        </mxCell>
        <mxCell id="EwGtlSyqyE_qJy5FZoIZ-11" value="User Signup" style="rounded=1;whiteSpace=wrap;html=1;sketch=1;hachureGap=4;jiggle=2;curveFitting=1;fontFamily=Kalam;fontSize=16;" vertex="1" parent="1">
          <mxGeometry x="135" y="260" width="90" height="30" as="geometry" />
        </mxCell>
        <mxCell id="EwGtlSyqyE_qJy5FZoIZ-12" value="Link Account" style="rounded=1;whiteSpace=wrap;html=1;sketch=1;hachureGap=4;jiggle=2;curveFitting=1;fontFamily=Kalam;fontSize=16;" vertex="1" parent="1">
          <mxGeometry x="300" y="260" width="90" height="40" as="geometry" />
        </mxCell>
        <mxCell id="EwGtlSyqyE_qJy5FZoIZ-13" value="User Avatar" style="rounded=1;whiteSpace=wrap;html=1;sketch=1;hachureGap=4;jiggle=2;curveFitting=1;fontFamily=Kalam;fontSize=16;" vertex="1" parent="1">
          <mxGeometry x="465" y="260" width="90" height="40" as="geometry" />
        </mxCell>
        <mxCell id="EwGtlSyqyE_qJy5FZoIZ-14" value="User Login" style="rounded=1;whiteSpace=wrap;html=1;sketch=1;hachureGap=4;jiggle=2;curveFitting=1;fontFamily=Kalam;fontSize=16;" vertex="1" parent="1">
          <mxGeometry x="135" y="300" width="90" height="30" as="geometry" />
        </mxCell>
        <mxCell id="EwGtlSyqyE_qJy5FZoIZ-15" value="The MoSCow Method" style="text;html=1;align=center;verticalAlign=middle;resizable=0;points=[];autosize=1;strokeColor=none;fillColor=none;fontFamily=arial;fontSize=18;" vertex="1" parent="1">
          <mxGeometry x="245" y="115" width="200" height="40" as="geometry" />
        </mxCell>
      </root>
    </mxGraphModel>
  </diagram>
  <diagram id="SjCxRsbCowk4ME6x8R5h" name="Value Effort">
    <mxGraphModel dx="717" dy="396" grid="1" gridSize="10" guides="1" tooltips="1" connect="1" arrows="1" fold="1" page="1" pageScale="1" pageWidth="827" pageHeight="1169" math="0" shadow="0">
      <root>
        <mxCell id="0" />
        <mxCell id="1" parent="0" />
        <mxCell id="7K_2rRJy7GS-EQrrO1Fp-1" value="" style="endArrow=classic;html=1;rounded=0;sketch=1;hachureGap=4;jiggle=2;curveFitting=1;fontFamily=Kalam;fontSize=16;strokeWidth=2;" edge="1" parent="1">
          <mxGeometry width="50" height="50" relative="1" as="geometry">
            <mxPoint x="360" y="530" as="sourcePoint" />
            <mxPoint x="360" y="290" as="targetPoint" />
          </mxGeometry>
        </mxCell>
        <mxCell id="7K_2rRJy7GS-EQrrO1Fp-2" value="" style="endArrow=classic;html=1;rounded=0;sketch=1;hachureGap=4;jiggle=2;curveFitting=1;fontFamily=Kalam;fontSize=16;strokeWidth=2;" edge="1" parent="1">
          <mxGeometry width="50" height="50" relative="1" as="geometry">
            <mxPoint x="210" y="400" as="sourcePoint" />
            <mxPoint x="510" y="400" as="targetPoint" />
          </mxGeometry>
        </mxCell>
        <mxCell id="7K_2rRJy7GS-EQrrO1Fp-3" value="Value-Effort Mapping" style="text;html=1;align=center;verticalAlign=middle;resizable=0;points=[];autosize=1;strokeColor=none;fillColor=none;fontFamily=arial;fontSize=18;" vertex="1" parent="1">
          <mxGeometry x="265" y="170" width="190" height="40" as="geometry" />
        </mxCell>
        <mxCell id="7K_2rRJy7GS-EQrrO1Fp-4" value="Effort" style="text;html=1;align=center;verticalAlign=middle;resizable=0;points=[];autosize=1;strokeColor=none;fillColor=none;fontFamily=Kalam;fontSize=18;" vertex="1" parent="1">
          <mxGeometry x="325" y="253" width="70" height="40" as="geometry" />
        </mxCell>
        <mxCell id="7K_2rRJy7GS-EQrrO1Fp-5" value="Value" style="text;html=1;align=center;verticalAlign=middle;resizable=0;points=[];autosize=1;strokeColor=none;fillColor=none;fontFamily=Kalam;fontSize=18;" vertex="1" parent="1">
          <mxGeometry x="505" y="385" width="60" height="40" as="geometry" />
        </mxCell>
        <mxCell id="7K_2rRJy7GS-EQrrO1Fp-6" value="Refactor module" style="text;html=1;align=center;verticalAlign=middle;resizable=0;points=[];autosize=1;strokeColor=none;fillColor=none;fontFamily=Kalam;fontColor=#636363;fontSize=16;" vertex="1" parent="1">
          <mxGeometry x="385" y="300" width="130" height="30" as="geometry" />
        </mxCell>
        <mxCell id="7K_2rRJy7GS-EQrrO1Fp-8" value="Update onboarding docs" style="text;html=1;align=center;verticalAlign=middle;resizable=0;points=[];autosize=1;strokeColor=none;fillColor=none;fontFamily=Kalam;fontColor=#636363;fontSize=16;" vertex="1" parent="1">
          <mxGeometry x="405" y="455" width="180" height="30" as="geometry" />
        </mxCell>
        <mxCell id="7K_2rRJy7GS-EQrrO1Fp-9" value="slack bot to order&lt;br style=&quot;font-size: 16px;&quot;&gt;&lt;span style=&quot;background-color: initial; font-size: 16px;&quot;&gt;coffee&lt;/span&gt;" style="text;html=1;align=center;verticalAlign=middle;resizable=0;points=[];autosize=1;strokeColor=none;fillColor=none;fontFamily=Kalam;fontColor=#636363;fontSize=16;" vertex="1" parent="1">
          <mxGeometry x="190" y="320" width="140" height="50" as="geometry" />
        </mxCell>
        <mxCell id="7K_2rRJy7GS-EQrrO1Fp-10" value="fix UI responsiveness &lt;br style=&quot;font-size: 16px;&quot;&gt;on Internet Explorer" style="text;html=1;align=center;verticalAlign=middle;resizable=0;points=[];autosize=1;strokeColor=none;fillColor=none;fontFamily=Kalam;fontColor=#636363;fontSize=16;" vertex="1" parent="1">
          <mxGeometry x="190" y="410" width="160" height="50" as="geometry" />
        </mxCell>
        <mxCell id="7K_2rRJy7GS-EQrrO1Fp-14" value="low hanging fruits" style="text;html=1;align=center;verticalAlign=middle;resizable=0;points=[];autosize=1;strokeColor=none;fillColor=none;fontFamily=Kalam;fontColor=#97D077;fontSize=16;" vertex="1" parent="1">
          <mxGeometry x="465" y="500" width="150" height="30" as="geometry" />
        </mxCell>
        <mxCell id="7K_2rRJy7GS-EQrrO1Fp-16" value="don&#39;t touch" style="text;html=1;align=center;verticalAlign=middle;resizable=0;points=[];autosize=1;strokeColor=none;fillColor=none;fontFamily=Kalam;fontColor=#EA6B66;fontSize=16;" vertex="1" parent="1">
          <mxGeometry x="105" y="280" width="100" height="30" as="geometry" />
        </mxCell>
        <mxCell id="7K_2rRJy7GS-EQrrO1Fp-17" value="maybe when blocked" style="text;html=1;align=center;verticalAlign=middle;resizable=0;points=[];autosize=1;strokeColor=none;fillColor=none;fontFamily=Kalam;fontColor=#B266FF;fontSize=16;" vertex="1" parent="1">
          <mxGeometry x="90" y="500" width="160" height="30" as="geometry" />
        </mxCell>
        <mxCell id="7K_2rRJy7GS-EQrrO1Fp-18" value="consider allocating&amp;nbsp;&lt;div style=&quot;font-size: 16px;&quot;&gt;dedicated time &lt;br style=&quot;font-size: 16px;&quot;&gt;for these&lt;/div&gt;" style="text;html=1;align=center;verticalAlign=middle;resizable=0;points=[];autosize=1;strokeColor=none;fillColor=none;fontFamily=Kalam;fontColor=#4583FF;fontSize=16;" vertex="1" parent="1">
          <mxGeometry x="515" y="275" width="150" height="70" as="geometry" />
        </mxCell>
        <mxCell id="7K_2rRJy7GS-EQrrO1Fp-19" value="Fix flaky tests" style="text;html=1;align=center;verticalAlign=middle;resizable=0;points=[];autosize=1;strokeColor=none;fillColor=none;fontFamily=Kalam;fontColor=#636363;fontSize=16;" vertex="1" parent="1">
          <mxGeometry x="385" y="360" width="120" height="30" as="geometry" />
        </mxCell>
        <mxCell id="7K_2rRJy7GS-EQrrO1Fp-20" value="" style="shape=waypoint;sketch=0;size=6;pointerEvents=1;points=[];fillColor=#f5f5f5;resizable=0;rotatable=0;perimeter=centerPerimeter;snapToPoint=1;hachureGap=4;jiggle=2;curveFitting=1;fontFamily=Architects Daughter;fontSource=https%3A%2F%2Ffonts.googleapis.com%2Fcss%3Ffamily%3DArchitects%2BDaughter;fontColor=#333333;strokeColor=#666666;fontSize=16;" vertex="1" parent="1">
          <mxGeometry x="424" y="320" width="20" height="20" as="geometry" />
        </mxCell>
        <mxCell id="7K_2rRJy7GS-EQrrO1Fp-21" value="" style="shape=waypoint;sketch=0;size=6;pointerEvents=1;points=[];fillColor=#f5f5f5;resizable=0;rotatable=0;perimeter=centerPerimeter;snapToPoint=1;hachureGap=4;jiggle=2;curveFitting=1;fontFamily=Architects Daughter;fontSource=https%3A%2F%2Ffonts.googleapis.com%2Fcss%3Ffamily%3DArchitects%2BDaughter;fontColor=#333333;strokeColor=#666666;fontSize=16;" vertex="1" parent="1">
          <mxGeometry x="405" y="350" width="20" height="20" as="geometry" />
        </mxCell>
        <mxCell id="7K_2rRJy7GS-EQrrO1Fp-22" value="" style="shape=waypoint;sketch=0;size=6;pointerEvents=1;points=[];fillColor=#f5f5f5;resizable=0;rotatable=0;perimeter=centerPerimeter;snapToPoint=1;hachureGap=4;jiggle=2;curveFitting=1;fontFamily=Architects Daughter;fontSource=https%3A%2F%2Ffonts.googleapis.com%2Fcss%3Ffamily%3DArchitects%2BDaughter;fontColor=#333333;strokeColor=#666666;fontSize=16;" vertex="1" parent="1">
          <mxGeometry x="469" y="440" width="20" height="20" as="geometry" />
        </mxCell>
        <mxCell id="7K_2rRJy7GS-EQrrO1Fp-23" value="" style="shape=waypoint;sketch=0;size=6;pointerEvents=1;points=[];fillColor=#f5f5f5;resizable=0;rotatable=0;perimeter=centerPerimeter;snapToPoint=1;hachureGap=4;jiggle=2;curveFitting=1;fontFamily=Architects Daughter;fontSource=https%3A%2F%2Ffonts.googleapis.com%2Fcss%3Ffamily%3DArchitects%2BDaughter;fontColor=#333333;strokeColor=#666666;fontSize=16;" vertex="1" parent="1">
          <mxGeometry x="235" y="305" width="20" height="20" as="geometry" />
        </mxCell>
        <mxCell id="7K_2rRJy7GS-EQrrO1Fp-24" value="" style="shape=waypoint;sketch=0;size=6;pointerEvents=1;points=[];fillColor=#f5f5f5;resizable=0;rotatable=0;perimeter=centerPerimeter;snapToPoint=1;hachureGap=4;jiggle=2;curveFitting=1;fontFamily=Architects Daughter;fontSource=https%3A%2F%2Ffonts.googleapis.com%2Fcss%3Ffamily%3DArchitects%2BDaughter;fontColor=#333333;strokeColor=#666666;fontSize=16;" vertex="1" parent="1">
          <mxGeometry x="245" y="455" width="20" height="20" as="geometry" />
        </mxCell>
      </root>
    </mxGraphModel>
  </diagram>
  <diagram id="HSXqixnhRKQR7IUmMORU" name="Severity Frequency">
    <mxGraphModel dx="494" dy="273" grid="1" gridSize="10" guides="1" tooltips="1" connect="1" arrows="1" fold="1" page="1" pageScale="1" pageWidth="827" pageHeight="1169" math="0" shadow="0">
      <root>
        <mxCell id="0" />
        <mxCell id="1" parent="0" />
        <mxCell id="rn3HQ0bVZotOhkwFob2j-15" value="" style="rounded=0;whiteSpace=wrap;html=1;sketch=1;hachureGap=4;jiggle=2;curveFitting=1;fontFamily=Architects Daughter;fontSource=https%3A%2F%2Ffonts.googleapis.com%2Fcss%3Ffamily%3DArchitects%2BDaughter;fillColor=none;fontSize=16;" vertex="1" parent="1">
          <mxGeometry x="370" y="225" width="40" height="130" as="geometry" />
        </mxCell>
        <mxCell id="rn3HQ0bVZotOhkwFob2j-1" value="Severity Frequency Matrix" style="text;html=1;align=center;verticalAlign=middle;resizable=0;points=[];autosize=1;strokeColor=none;fillColor=none;fontFamily=arial;fontSize=18;" vertex="1" parent="1">
          <mxGeometry x="230" y="170" width="230" height="40" as="geometry" />
        </mxCell>
        <mxCell id="rn3HQ0bVZotOhkwFob2j-2" value="" style="rounded=0;whiteSpace=wrap;html=1;sketch=1;hachureGap=4;jiggle=2;curveFitting=1;fontFamily=Architects Daughter;fontSource=https%3A%2F%2Ffonts.googleapis.com%2Fcss%3Ffamily%3DArchitects%2BDaughter;fillColor=none;fontSize=16;" vertex="1" parent="1">
          <mxGeometry x="230" y="227" width="230" height="100" as="geometry" />
        </mxCell>
        <mxCell id="rn3HQ0bVZotOhkwFob2j-3" value="" style="rounded=0;whiteSpace=wrap;html=1;sketch=1;hachureGap=4;jiggle=2;curveFitting=1;fontFamily=Architects Daughter;fontSource=https%3A%2F%2Ffonts.googleapis.com%2Fcss%3Ffamily%3DArchitects%2BDaughter;fillColor=none;fontSize=16;" vertex="1" parent="1">
          <mxGeometry x="230" y="245" width="230" height="80" as="geometry" />
        </mxCell>
        <mxCell id="rn3HQ0bVZotOhkwFob2j-4" value="" style="rounded=0;whiteSpace=wrap;html=1;sketch=1;hachureGap=4;jiggle=2;curveFitting=1;fontFamily=Architects Daughter;fontSource=https%3A%2F%2Ffonts.googleapis.com%2Fcss%3Ffamily%3DArchitects%2BDaughter;fillColor=none;fontSize=16;" vertex="1" parent="1">
          <mxGeometry x="230" y="275" width="230" height="80" as="geometry" />
        </mxCell>
        <mxCell id="rn3HQ0bVZotOhkwFob2j-5" value="" style="rounded=0;whiteSpace=wrap;html=1;sketch=1;hachureGap=4;jiggle=2;curveFitting=1;fontFamily=Architects Daughter;fontSource=https%3A%2F%2Ffonts.googleapis.com%2Fcss%3Ffamily%3DArchitects%2BDaughter;fillColor=none;fontSize=16;" vertex="1" parent="1">
          <mxGeometry x="230" y="305" width="230" height="50" as="geometry" />
        </mxCell>
        <mxCell id="rn3HQ0bVZotOhkwFob2j-6" value="" style="rounded=0;whiteSpace=wrap;html=1;sketch=1;hachureGap=4;jiggle=2;curveFitting=1;fontFamily=Architects Daughter;fontSource=https%3A%2F%2Ffonts.googleapis.com%2Fcss%3Ffamily%3DArchitects%2BDaughter;fillColor=none;fontSize=16;" vertex="1" parent="1">
          <mxGeometry x="230" y="225" width="60" height="130" as="geometry" />
        </mxCell>
        <mxCell id="rn3HQ0bVZotOhkwFob2j-7" value="F0" style="text;html=1;align=center;verticalAlign=middle;resizable=0;points=[];autosize=1;strokeColor=none;fillColor=none;fontFamily=Architects Daughter;fontSource=https%3A%2F%2Ffonts.googleapis.com%2Fcss%3Ffamily%3DArchitects%2BDaughter;fontSize=16;" vertex="1" parent="1">
          <mxGeometry x="240" y="245" width="40" height="30" as="geometry" />
        </mxCell>
        <mxCell id="rn3HQ0bVZotOhkwFob2j-8" value="F1" style="text;html=1;align=center;verticalAlign=middle;resizable=0;points=[];autosize=1;strokeColor=none;fillColor=none;fontFamily=Architects Daughter;fontSource=https%3A%2F%2Ffonts.googleapis.com%2Fcss%3Ffamily%3DArchitects%2BDaughter;fontSize=16;" vertex="1" parent="1">
          <mxGeometry x="240" y="275" width="40" height="30" as="geometry" />
        </mxCell>
        <mxCell id="rn3HQ0bVZotOhkwFob2j-9" value="F2" style="text;html=1;align=center;verticalAlign=middle;resizable=0;points=[];autosize=1;strokeColor=none;fillColor=none;fontFamily=Architects Daughter;fontSource=https%3A%2F%2Ffonts.googleapis.com%2Fcss%3Ffamily%3DArchitects%2BDaughter;fontSize=16;" vertex="1" parent="1">
          <mxGeometry x="240" y="300" width="40" height="30" as="geometry" />
        </mxCell>
        <mxCell id="rn3HQ0bVZotOhkwFob2j-10" value="S0" style="text;html=1;align=center;verticalAlign=middle;resizable=0;points=[];autosize=1;strokeColor=none;fillColor=none;fontFamily=Architects Daughter;fontSource=https%3A%2F%2Ffonts.googleapis.com%2Fcss%3Ffamily%3DArchitects%2BDaughter;fontSize=16;" vertex="1" parent="1">
          <mxGeometry x="290" y="220" width="40" height="30" as="geometry" />
        </mxCell>
        <mxCell id="rn3HQ0bVZotOhkwFob2j-11" value="S1" style="text;html=1;align=center;verticalAlign=middle;resizable=0;points=[];autosize=1;strokeColor=none;fillColor=none;fontFamily=Architects Daughter;fontSource=https%3A%2F%2Ffonts.googleapis.com%2Fcss%3Ffamily%3DArchitects%2BDaughter;fontSize=16;" vertex="1" parent="1">
          <mxGeometry x="330" y="220" width="40" height="30" as="geometry" />
        </mxCell>
        <mxCell id="rn3HQ0bVZotOhkwFob2j-12" value="S2" style="text;html=1;align=center;verticalAlign=middle;resizable=0;points=[];autosize=1;strokeColor=none;fillColor=none;fontFamily=Architects Daughter;fontSource=https%3A%2F%2Ffonts.googleapis.com%2Fcss%3Ffamily%3DArchitects%2BDaughter;fontSize=16;" vertex="1" parent="1">
          <mxGeometry x="370" y="221" width="40" height="30" as="geometry" />
        </mxCell>
        <mxCell id="rn3HQ0bVZotOhkwFob2j-13" value="" style="rounded=0;whiteSpace=wrap;html=1;sketch=1;hachureGap=4;jiggle=2;curveFitting=1;fontFamily=Architects Daughter;fontSource=https%3A%2F%2Ffonts.googleapis.com%2Fcss%3Ffamily%3DArchitects%2BDaughter;fillColor=none;fontSize=16;" vertex="1" parent="1">
          <mxGeometry x="290" y="225" width="40" height="130" as="geometry" />
        </mxCell>
        <mxCell id="rn3HQ0bVZotOhkwFob2j-14" value="" style="rounded=0;whiteSpace=wrap;html=1;sketch=1;hachureGap=4;jiggle=2;curveFitting=1;fontFamily=Architects Daughter;fontSource=https%3A%2F%2Ffonts.googleapis.com%2Fcss%3Ffamily%3DArchitects%2BDaughter;fillColor=none;fontSize=16;" vertex="1" parent="1">
          <mxGeometry x="330" y="225" width="40" height="130" as="geometry" />
        </mxCell>
        <mxCell id="rn3HQ0bVZotOhkwFob2j-17" value="P0" style="whiteSpace=wrap;html=1;sketch=1;hachureGap=4;jiggle=2;curveFitting=1;fontFamily=Architects Daughter;fontSource=https%3A%2F%2Ffonts.googleapis.com%2Fcss%3Ffamily%3DArchitects%2BDaughter;fillColor=#f8cecc;strokeColor=#b85450;fontSize=16;" vertex="1" parent="1">
          <mxGeometry x="295" y="250" width="30" height="20" as="geometry" />
        </mxCell>
        <mxCell id="rn3HQ0bVZotOhkwFob2j-18" value="P0" style="whiteSpace=wrap;html=1;sketch=1;hachureGap=4;jiggle=2;curveFitting=1;fontFamily=Architects Daughter;fontSource=https%3A%2F%2Ffonts.googleapis.com%2Fcss%3Ffamily%3DArchitects%2BDaughter;fillColor=#f8cecc;strokeColor=#b85450;fontSize=16;" vertex="1" parent="1">
          <mxGeometry x="295" y="280" width="30" height="20" as="geometry" />
        </mxCell>
        <mxCell id="rn3HQ0bVZotOhkwFob2j-19" value="P1" style="whiteSpace=wrap;html=1;sketch=1;hachureGap=4;jiggle=2;curveFitting=1;fontFamily=Architects Daughter;fontSource=https%3A%2F%2Ffonts.googleapis.com%2Fcss%3Ffamily%3DArchitects%2BDaughter;fillColor=#ffe6cc;strokeColor=#d79b00;fontSize=16;" vertex="1" parent="1">
          <mxGeometry x="335" y="250" width="30" height="20" as="geometry" />
        </mxCell>
        <mxCell id="rn3HQ0bVZotOhkwFob2j-20" value="P1" style="whiteSpace=wrap;html=1;sketch=1;hachureGap=4;jiggle=2;curveFitting=1;fontFamily=Architects Daughter;fontSource=https%3A%2F%2Ffonts.googleapis.com%2Fcss%3Ffamily%3DArchitects%2BDaughter;fillColor=#ffe6cc;strokeColor=#d79b00;fontSize=16;" vertex="1" parent="1">
          <mxGeometry x="335" y="280" width="30" height="20" as="geometry" />
        </mxCell>
        <mxCell id="rn3HQ0bVZotOhkwFob2j-21" value="P1" style="whiteSpace=wrap;html=1;sketch=1;hachureGap=4;jiggle=2;curveFitting=1;fontFamily=Architects Daughter;fontSource=https%3A%2F%2Ffonts.googleapis.com%2Fcss%3Ffamily%3DArchitects%2BDaughter;fillColor=#ffe6cc;strokeColor=#d79b00;fontSize=16;" vertex="1" parent="1">
          <mxGeometry x="295" y="305" width="30" height="20" as="geometry" />
        </mxCell>
        <mxCell id="rn3HQ0bVZotOhkwFob2j-22" value="P2" style="whiteSpace=wrap;html=1;sketch=1;hachureGap=4;jiggle=2;curveFitting=1;fontFamily=Architects Daughter;fontSource=https%3A%2F%2Ffonts.googleapis.com%2Fcss%3Ffamily%3DArchitects%2BDaughter;fillColor=#fff2cc;strokeColor=#d6b656;fontSize=16;" vertex="1" parent="1">
          <mxGeometry x="335" y="305" width="30" height="20" as="geometry" />
        </mxCell>
        <mxCell id="rn3HQ0bVZotOhkwFob2j-23" value="P4" style="whiteSpace=wrap;html=1;sketch=1;hachureGap=4;jiggle=2;curveFitting=1;fontFamily=Architects Daughter;fontSource=https%3A%2F%2Ffonts.googleapis.com%2Fcss%3Ffamily%3DArchitects%2BDaughter;fillColor=#dae8fc;strokeColor=#6c8ebf;fontSize=16;" vertex="1" parent="1">
          <mxGeometry x="375" y="305" width="30" height="20" as="geometry" />
        </mxCell>
        <mxCell id="rn3HQ0bVZotOhkwFob2j-24" value="P3" style="whiteSpace=wrap;html=1;sketch=1;hachureGap=4;jiggle=2;curveFitting=1;fontFamily=Architects Daughter;fontSource=https%3A%2F%2Ffonts.googleapis.com%2Fcss%3Ffamily%3DArchitects%2BDaughter;fillColor=#e1d5e7;strokeColor=#9673a6;fontSize=16;" vertex="1" parent="1">
          <mxGeometry x="375" y="280" width="30" height="20" as="geometry" />
        </mxCell>
        <mxCell id="rn3HQ0bVZotOhkwFob2j-25" value="P2" style="whiteSpace=wrap;html=1;sketch=1;hachureGap=4;jiggle=2;curveFitting=1;fontFamily=Architects Daughter;fontSource=https%3A%2F%2Ffonts.googleapis.com%2Fcss%3Ffamily%3DArchitects%2BDaughter;fillColor=#fff2cc;strokeColor=#d6b656;fontSize=16;" vertex="1" parent="1">
          <mxGeometry x="375" y="250" width="30" height="20" as="geometry" />
        </mxCell>
      </root>
    </mxGraphModel>
  </diagram>
  <diagram id="sUV-48nidInxYTaOYLjM" name="Stack Ranking">
    <mxGraphModel dx="896" dy="494" grid="1" gridSize="10" guides="1" tooltips="1" connect="1" arrows="1" fold="1" page="1" pageScale="1" pageWidth="827" pageHeight="1169" math="0" shadow="0">
      <root>
        <mxCell id="0" />
        <mxCell id="1" parent="0" />
        <mxCell id="qVdvbHJBPBwXYqXaiecO-1" value="Stack Ranking" style="text;html=1;align=center;verticalAlign=middle;resizable=0;points=[];autosize=1;strokeColor=none;fillColor=none;fontFamily=arial;fontSize=18;" vertex="1" parent="1">
          <mxGeometry x="250" y="135" width="140" height="40" as="geometry" />
        </mxCell>
        <mxCell id="qVdvbHJBPBwXYqXaiecO-2" value="User Signup" style="rounded=0;whiteSpace=wrap;html=1;sketch=1;hachureGap=4;jiggle=2;curveFitting=1;fontFamily=Kalam;fontSize=16;fillColor=#f8cecc;strokeColor=#b85450;" vertex="1" parent="1">
          <mxGeometry x="200" y="190" width="240" height="40" as="geometry" />
        </mxCell>
        <mxCell id="qVdvbHJBPBwXYqXaiecO-3" value="User Login" style="rounded=0;whiteSpace=wrap;html=1;sketch=1;hachureGap=4;jiggle=2;curveFitting=1;fontFamily=Kalam;fontSize=16;fillColor=#ffe6cc;strokeColor=#d79b00;" vertex="1" parent="1">
          <mxGeometry x="200" y="230" width="240" height="40" as="geometry" />
        </mxCell>
        <mxCell id="qVdvbHJBPBwXYqXaiecO-4" value="Create User Avatar" style="rounded=0;whiteSpace=wrap;html=1;sketch=1;hachureGap=4;jiggle=2;curveFitting=1;fontFamily=Kalam;fontSize=16;fillColor=#dae8fc;strokeColor=#6c8ebf;" vertex="1" parent="1">
          <mxGeometry x="200" y="300" width="240" height="30" as="geometry" />
        </mxCell>
        <mxCell id="qVdvbHJBPBwXYqXaiecO-6" value="..." style="text;html=1;align=center;verticalAlign=middle;resizable=0;points=[];autosize=1;strokeColor=none;fillColor=none;fontFamily=Kalam;fontSize=16;" vertex="1" parent="1">
          <mxGeometry x="305" y="270" width="30" height="30" as="geometry" />
        </mxCell>
        <mxCell id="qVdvbHJBPBwXYqXaiecO-7" value="..." style="text;html=1;align=center;verticalAlign=middle;resizable=0;points=[];autosize=1;strokeColor=none;fillColor=none;fontFamily=Kalam;fontSize=16;" vertex="1" parent="1">
          <mxGeometry x="305" y="326" width="30" height="30" as="geometry" />
        </mxCell>
        <mxCell id="qVdvbHJBPBwXYqXaiecO-8" value="1" style="text;html=1;align=center;verticalAlign=middle;resizable=0;points=[];autosize=1;strokeColor=none;fillColor=none;fontFamily=Kalam;fontSize=16;" vertex="1" parent="1">
          <mxGeometry x="165" y="195" width="30" height="30" as="geometry" />
        </mxCell>
        <mxCell id="qVdvbHJBPBwXYqXaiecO-9" value="2" style="text;html=1;align=center;verticalAlign=middle;resizable=0;points=[];autosize=1;strokeColor=none;fillColor=none;fontFamily=Kalam;fontSize=16;" vertex="1" parent="1">
          <mxGeometry x="165" y="230" width="30" height="30" as="geometry" />
        </mxCell>
        <mxCell id="qVdvbHJBPBwXYqXaiecO-10" value="n" style="text;html=1;align=center;verticalAlign=middle;resizable=0;points=[];autosize=1;strokeColor=none;fillColor=none;fontFamily=Kalam;fontSize=16;" vertex="1" parent="1">
          <mxGeometry x="165" y="296" width="30" height="30" as="geometry" />
        </mxCell>
        <mxCell id="kYlFG1LpWR5qcatO6S9k-1" value="" style="endArrow=classic;html=1;rounded=0;sketch=1;hachureGap=4;jiggle=2;curveFitting=1;fontFamily=Architects Daughter;fontSource=https%3A%2F%2Ffonts.googleapis.com%2Fcss%3Ffamily%3DArchitects%2BDaughter;strokeWidth=2;" edge="1" parent="1">
          <mxGeometry width="50" height="50" relative="1" as="geometry">
            <mxPoint x="520" y="360" as="sourcePoint" />
            <mxPoint x="520" y="200" as="targetPoint" />
          </mxGeometry>
        </mxCell>
        <mxCell id="kYlFG1LpWR5qcatO6S9k-2" value="Priority" style="text;html=1;align=center;verticalAlign=middle;resizable=0;points=[];autosize=1;strokeColor=none;fillColor=none;fontFamily=Kalam;labelBackgroundColor=default;fontSize=16;" vertex="1" parent="1">
          <mxGeometry x="484" y="260" width="70" height="30" as="geometry" />
        </mxCell>
      </root>
    </mxGraphModel>
  </diagram>
  <diagram id="gdbWyDr1r445hpWXxms3" name="Eisenhower">
    <mxGraphModel dx="797" dy="439" grid="1" gridSize="10" guides="1" tooltips="1" connect="1" arrows="1" fold="1" page="1" pageScale="1" pageWidth="827" pageHeight="1169" math="0" shadow="0">
      <root>
        <mxCell id="0" />
        <mxCell id="1" parent="0" />
        <mxCell id="J5_uwKwvm4HjffvoNAjZ-1" value="" style="rounded=0;whiteSpace=wrap;html=1;sketch=1;hachureGap=4;jiggle=2;curveFitting=1;fontFamily=Architects Daughter;fontSource=https%3A%2F%2Ffonts.googleapis.com%2Fcss%3Ffamily%3DArchitects%2BDaughter;fontSize=16;strokeWidth=2;" vertex="1" parent="1">
          <mxGeometry x="195" y="230" width="400" height="238" as="geometry" />
        </mxCell>
        <mxCell id="V7wtJCI_7ewq-flLEbN5-1" value="Eisenhower Matrix" style="text;html=1;align=center;verticalAlign=middle;resizable=0;points=[];autosize=1;strokeColor=none;fillColor=none;fontFamily=arial;fontSize=18;" vertex="1" parent="1">
          <mxGeometry x="310" y="135" width="170" height="40" as="geometry" />
        </mxCell>
        <mxCell id="RvBSYEPIQP0Sq8NwkB4c-3" value="Urgency" style="text;html=1;align=center;verticalAlign=middle;resizable=0;points=[];autosize=1;strokeColor=none;fillColor=none;fontFamily=Kalam;fontSize=16;" vertex="1" parent="1">
          <mxGeometry x="360" y="190" width="80" height="30" as="geometry" />
        </mxCell>
        <mxCell id="RvBSYEPIQP0Sq8NwkB4c-4" value="Importance" style="text;html=1;align=center;verticalAlign=middle;resizable=0;points=[];autosize=1;strokeColor=none;fillColor=none;fontFamily=Kalam;fontSize=16;" vertex="1" parent="1">
          <mxGeometry x="610" y="334" width="100" height="30" as="geometry" />
        </mxCell>
        <mxCell id="RvBSYEPIQP0Sq8NwkB4c-5" value="Routine system&lt;br&gt;&amp;nbsp;maintenance" style="text;html=1;align=center;verticalAlign=middle;resizable=0;points=[];autosize=1;strokeColor=none;fillColor=none;fontFamily=Architects Daughter;fontSource=https%3A%2F%2Ffonts.googleapis.com%2Fcss%3Ffamily%3DArchitects%2BDaughter;fontColor=#67AB9F;fontSize=16;" vertex="1" parent="1">
          <mxGeometry x="420" y="380" width="140" height="50" as="geometry" />
        </mxCell>
        <mxCell id="RvBSYEPIQP0Sq8NwkB4c-6" value="Research for&amp;nbsp;&lt;div style=&quot;font-size: 16px;&quot;&gt;performance&lt;br&gt;&amp;nbsp;improvement&lt;/div&gt;" style="text;html=1;align=center;verticalAlign=middle;resizable=0;points=[];autosize=1;strokeColor=none;fillColor=none;fontFamily=Architects Daughter;fontSource=https%3A%2F%2Ffonts.googleapis.com%2Fcss%3Ffamily%3DArchitects%2BDaughter;fontColor=#7EA6E0;fontSize=16;" vertex="1" parent="1">
          <mxGeometry x="225" y="250" width="140" height="70" as="geometry" />
        </mxCell>
        <mxCell id="RvBSYEPIQP0Sq8NwkB4c-7" value="Optional Office &lt;br style=&quot;font-size: 16px;&quot;&gt;walkthrough meetings" style="text;html=1;align=center;verticalAlign=middle;resizable=0;points=[];autosize=1;strokeColor=none;fillColor=none;fontFamily=Architects Daughter;fontSource=https%3A%2F%2Ffonts.googleapis.com%2Fcss%3Ffamily%3DArchitects%2BDaughter;fontColor=#636363;fontSize=16;" vertex="1" parent="1">
          <mxGeometry x="190" y="385" width="180" height="50" as="geometry" />
        </mxCell>
        <mxCell id="RvBSYEPIQP0Sq8NwkB4c-8" value="&lt;div style=&quot;font-size: 16px;&quot;&gt;Client Launch Day &lt;br&gt;Release Prep&lt;/div&gt;" style="text;html=1;align=center;verticalAlign=middle;resizable=0;points=[];autosize=1;strokeColor=none;fillColor=none;fontFamily=Architects Daughter;fontSource=https%3A%2F%2Ffonts.googleapis.com%2Fcss%3Ffamily%3DArchitects%2BDaughter;fontColor=#EA6B66;fontStyle=1;fontSize=16;" vertex="1" parent="1">
          <mxGeometry x="420" y="260" width="160" height="50" as="geometry" />
        </mxCell>
        <mxCell id="J5_uwKwvm4HjffvoNAjZ-2" value="" style="endArrow=classic;html=1;rounded=0;sketch=1;hachureGap=4;jiggle=2;curveFitting=1;fontFamily=Architects Daughter;fontSource=https%3A%2F%2Ffonts.googleapis.com%2Fcss%3Ffamily%3DArchitects%2BDaughter;fontSize=16;fillColor=#f8cecc;strokeColor=#b85450;" edge="1" parent="1">
          <mxGeometry width="50" height="50" relative="1" as="geometry">
            <mxPoint x="200" y="220" as="sourcePoint" />
            <mxPoint x="590" y="220" as="targetPoint" />
          </mxGeometry>
        </mxCell>
        <mxCell id="J5_uwKwvm4HjffvoNAjZ-3" value="" style="endArrow=classic;html=1;rounded=0;sketch=1;hachureGap=4;jiggle=2;curveFitting=1;fontFamily=Architects Daughter;fontSource=https%3A%2F%2Ffonts.googleapis.com%2Fcss%3Ffamily%3DArchitects%2BDaughter;fontSize=16;fillColor=#e1d5e7;strokeColor=#9673a6;" edge="1" parent="1">
          <mxGeometry width="50" height="50" relative="1" as="geometry">
            <mxPoint x="610" y="460" as="sourcePoint" />
            <mxPoint x="610" y="230" as="targetPoint" />
          </mxGeometry>
        </mxCell>
        <mxCell id="J5_uwKwvm4HjffvoNAjZ-4" value="" style="endArrow=none;html=1;rounded=0;sketch=1;hachureGap=4;jiggle=2;curveFitting=1;fontFamily=Architects Daughter;fontSource=https%3A%2F%2Ffonts.googleapis.com%2Fcss%3Ffamily%3DArchitects%2BDaughter;exitX=0.5;exitY=1;exitDx=0;exitDy=0;fontSize=16;strokeWidth=2;" edge="1" parent="1" source="J5_uwKwvm4HjffvoNAjZ-1">
          <mxGeometry width="50" height="50" relative="1" as="geometry">
            <mxPoint x="394.72" y="420" as="sourcePoint" />
            <mxPoint x="394.72" y="230" as="targetPoint" />
          </mxGeometry>
        </mxCell>
        <mxCell id="J5_uwKwvm4HjffvoNAjZ-5" value="" style="endArrow=none;html=1;rounded=0;sketch=1;hachureGap=4;jiggle=2;curveFitting=1;fontFamily=Architects Daughter;fontSource=https%3A%2F%2Ffonts.googleapis.com%2Fcss%3Ffamily%3DArchitects%2BDaughter;exitX=1;exitY=0.5;exitDx=0;exitDy=0;entryX=0;entryY=0.5;entryDx=0;entryDy=0;fontSize=16;strokeWidth=2;" edge="1" parent="1" source="J5_uwKwvm4HjffvoNAjZ-1" target="J5_uwKwvm4HjffvoNAjZ-1">
          <mxGeometry width="50" height="50" relative="1" as="geometry">
            <mxPoint x="405" y="478" as="sourcePoint" />
            <mxPoint x="404.72" y="240" as="targetPoint" />
          </mxGeometry>
        </mxCell>
      </root>
    </mxGraphModel>
  </diagram>
</mxfile>
